<svg xmlns="http://www.w3.org/2000/svg" version="1.1" xmlns:xlink="http://www.w3.org/1999/xlink" xmlns:svgjs="http://svgjs.dev/svgjs" width="2000" height="1500" viewBox="0 0 2000 1500"><rect width="2000" height="1500" fill="#ea9937"></rect><g transform="matrix(0.75,0,0,0.75,249.090909090909,282.7536437246963)"><svg viewBox="0 0 396 247" data-background-color="#ea9937" preserveAspectRatio="xMidYMid meet" height="1247" width="2000" xmlns="http://www.w3.org/2000/svg" xmlns:xlink="http://www.w3.org/1999/xlink"><g id="tight-bounds" transform="matrix(1,0,0,1,0.2400000000000091,-0.09999999999999432)"><svg viewBox="0 0 395.52 247.2" height="247.2" width="395.52"><g><svg></svg></g><g><svg viewBox="0 0 395.52 247.2" height="247.2" width="395.52"><g transform="matrix(1,0,0,1,39.55199999999999,46.54661429693637)"><svg viewBox="0 0 316.416 154.10677140612725" height="154.10677140612725" width="316.416"><g><svg viewBox="0 0 316.416 154.10677140612725" height="154.10677140612725" width="316.416"><g><svg viewBox="0 0 316.416 154.10677140612725" height="154.10677140612725" width="316.416"><g><svg viewBox="0 0 316.416 154.10677140612725" height="154.10677140612725" width="316.416"><g id="textblocktransform"><svg viewBox="0 0 316.416 154.10677140612725" height="154.10677140612725" width="316.416" id="textblock"><g><svg viewBox="0 0 316.416 154.10677140612725" height="154.10677140612725" width="316.416"><g transform="matrix(1,0,0,1,0,0)"><svg width="316.416" viewBox="2.69 -29.79 62.150000000000006 30.279999999999998" height="154.10677140612725" data-palette-color="#ffffff"><path d="M32.42-13.18L20.26-13.18 20.26-11.91 24.66-11.91 24.66-4.3Q22.22-1.37 18.12-1.03L18.12-1.03Q17.72-0.98 17.33-0.98L17.33-0.98Q7.62-1.07 7.57-14.65L7.57-14.65Q7.57-26.27 14.6-28.13L14.6-28.13Q15.82-28.42 17.19-28.42L17.19-28.42Q22.22-28.42 24.46-25.63L24.46-25.63Q25.93-23.73 27.1-19.68L27.1-19.68 28.37-19.68 28.13-29.15 23.88-28.27Q20.8-29.79 17.33-29.79L17.33-29.79Q11.47-29.79 7.28-25.93L7.28-25.93Q2.69-21.68 2.69-14.84L2.69-14.84Q2.69-7.03 8.25-2.64L8.25-2.64Q12.3 0.49 17.33 0.49L17.33 0.49Q21 0.49 23.97-1.12L23.97-1.12Q24.37-1.32 24.61-1.51L24.61-1.51 28.76 0 28.76-11.91 32.42-11.91 32.42-13.18ZM35.84 0L47.8 0Q47.8-1.07 47.02-1.22L47.02-1.22Q46.77-1.27 46.53-1.27L46.53-1.27 43.94-1.27 43.94-12.65 46.48-15.04 58.05 0 64.84 0Q64.84-1.07 64.06-1.22L64.06-1.22Q63.82-1.27 63.57-1.27L63.57-1.27 62.25-1.27 49.51-17.87 58.2-25.98Q60.01-27.69 60.94-27.93L60.94-27.93Q61.37-28.03 61.86-28.03L61.86-28.03Q62.94-28.03 63.08-28.81L63.08-28.81Q63.13-29.05 63.13-29.3L63.13-29.3 54.34-29.3 54.34-28.03 58.25-28.03 43.94-14.84 43.94-28.03 47.8-28.03 47.8-29.3 35.84-29.3 35.84-28.03 39.74-28.03 39.74-1.27 35.84-1.27 35.84 0Z" opacity="1" transform="matrix(1,0,0,1,0,0)" fill="#ffffff" class="wordmark-text-0" data-fill-palette-color="primary" id="text-0"></path></svg></g></svg></g></svg></g></svg></g><g></g></svg></g></svg></g></svg></g><g><path d="M0 247.2v-247.2h395.52v247.2zM381.622 233.302v-219.404h-367.724v219.404z" fill="#ffffff" fill-rule="nonzero" stroke="none" stroke-width="1" stroke-linecap="butt" stroke-linejoin="miter" stroke-miterlimit="10" stroke-dasharray="" stroke-dashoffset="0" font-family="none" font-weight="none" font-size="none" text-anchor="none" style="mix-blend-mode: normal" data-fill-palette-color="tertiary"></path></g></svg></g><defs></defs></svg><rect width="395.52" height="247.2" fill="none" stroke="none" visibility="hidden"></rect></g></svg></g></svg>