<svg xmlns="http://www.w3.org/2000/svg" version="1.1" xmlns:xlink="http://www.w3.org/1999/xlink" xmlns:svgjs="http://svgjs.dev/svgjs" width="1500" height="310" viewBox="0 0 1500 310"><g transform="matrix(1,0,0,1,-0.9090909090909918,-0.717721434955024)"><svg viewBox="0 0 396 82" data-background-color="#ffffff" preserveAspectRatio="xMidYMid meet" height="310" width="1500" xmlns="http://www.w3.org/2000/svg" xmlns:xlink="http://www.w3.org/1999/xlink"><g id="tight-bounds" transform="matrix(1,0,0,1,0.2400000000000091,0.1899048363132465)"><svg viewBox="0 0 395.52 81.62019032737349" height="81.62019032737349" width="395.52"><g><svg viewBox="0 0 545.1447970830156 112.49702187978646" height="81.62019032737349" width="395.52"><g><rect width="4.345927110972481" height="81.80861576641489" x="123.86778404835147" y="15.344203056685785" fill="#1e55b3" opacity="1" stroke-width="0" stroke="transparent" fill-opacity="1" class="rect-qz-0" data-fill-palette-color="primary" rx="1%" id="qz-0" data-palette-color="#1e55b3"></rect></g><g><rect width="4.345927110972481" height="81.80861576641489" x="133.90209743023033" y="15.344203056685785" fill="#1e55b3" opacity="1" stroke-width="0" stroke="transparent" fill-opacity="1" class="rect-qz-1" data-fill-palette-color="primary" rx="1%" id="qz-1" data-palette-color="#1e55b3"></rect></g><g transform="matrix(1,0,0,1,149.62479708301558,15.547707076005224)"><svg viewBox="0 0 395.52 81.40160772777601" height="81.40160772777601" width="395.52"><g id="textblocktransform"><svg viewBox="0 0 395.52 81.40160772777601" height="81.40160772777601" width="395.52" id="textblock"><g><svg viewBox="0 0 395.52 48.19114413075779" height="48.19114413075779" width="395.52"><g transform="matrix(1,0,0,1,0,0)"><svg width="395.52" viewBox="2.15 -36.35 302.83000000000004 36.9" height="48.19114413075779" data-palette-color="#1e55b3"><path d="M19.85-18.85L34.8-18.85 34.8 0 31.9 0 30.75-5.05Q25.65 0.55 18.55 0.55L18.55 0.55Q10.75 0.55 6.15-5.2L6.15-5.2Q2.15-10.25 2.15-17.8L2.15-17.8Q2.15-27.65 8.6-32.95L8.6-32.95Q12.8-36.35 19.35-36.35L19.35-36.35Q27.1-36.35 31.25-31.65L31.25-31.65Q33.5-29.1 34.3-25.05L34.3-25.05 29.65-25.05Q28.9-28.45 26.15-30.38 23.4-32.3 19.25-32.3L19.25-32.3Q13.2-32.3 9.7-27.9L9.7-27.9Q6.7-24.05 6.7-18.05L6.7-18.05Q6.7-11.05 10.5-7L10.5-7Q13.8-3.5 19.55-3.5L19.55-3.5Q24.75-3.5 27.95-6.9L27.95-6.9Q30.75-9.9 30.75-14.2L30.75-14.2 30.75-14.8 19.85-14.8 19.85-18.85ZM64.45-3.45L64.45-3.45 64.45-0.15Q62.75 0.45 61.8 0.45L61.8 0.45Q57.8 0.45 57.45-3.2L57.45-3.2Q54.7 0.55 48.7 0.55L48.7 0.55Q44.55 0.55 42.25-1.75L42.25-1.75Q40.25-3.75 40.25-6.9L40.25-6.9Q40.25-10.5 42.8-12.45L42.8-12.45Q44.25-13.55 48.85-14.6L48.85-14.6 57.25-16.5 57.3-18.65Q57.3-22.5 51.5-22.5L51.5-22.5Q45.95-22.5 45.55-18L45.55-18 41.4-18Q41.55-21.4 43.1-23.2L43.1-23.2Q45.75-26.25 51.7-26.25L51.7-26.25Q61.35-26.25 61.35-19.25L61.35-19.25 61.35-4.9Q61.35-3 63-3L63-3Q63.2-3 64.05-3.3L64.05-3.3Q64.35-3.4 64.45-3.45ZM57.3-8.65L57.3-13.15 50.7-11.45Q47.15-10.55 45.82-9.6 44.5-8.65 44.5-6.95L44.5-6.95Q44.5-3 49.6-3L49.6-3Q53.2-3 55.7-5.35L55.7-5.35Q57.3-6.8 57.3-8.65L57.3-8.65ZM89.15-25.7L89.15 0 85.09 0 85.09-4.05Q82.34 0.55 76.9 0.55L76.9 0.55Q73.15 0.55 70.92-1.33 68.7-3.2 68.7-6.35L68.7-6.35 68.7-25.7 72.75-25.7 72.75-8Q72.75-5.75 74.2-4.4 75.65-3.05 78.09-3.05L78.09-3.05Q81.3-3.05 83.2-5.38 85.09-7.7 85.09-11.65L85.09-11.65 85.09-25.7 89.15-25.7ZM96.19 0L96.19-25.7 99.99-25.7 99.99-21Q102.24-26.3 107.09-26.3L107.09-26.3Q107.69-26.3 108.54-26.15L108.54-26.15 108.54-21.95Q104.54-21.9 103.04-20.8L103.04-20.8Q100.29-18.8 100.29-13.35L100.29-13.35 100.29 0 96.19 0ZM135.39-3.45L135.39-3.45 135.39-0.15Q133.69 0.45 132.74 0.45L132.74 0.45Q128.74 0.45 128.39-3.2L128.39-3.2Q125.64 0.55 119.64 0.55L119.64 0.55Q115.49 0.55 113.19-1.75L113.19-1.75Q111.19-3.75 111.19-6.9L111.19-6.9Q111.19-10.5 113.74-12.45L113.74-12.45Q115.19-13.55 119.79-14.6L119.79-14.6 128.19-16.5 128.24-18.65Q128.24-22.5 122.44-22.5L122.44-22.5Q116.89-22.5 116.49-18L116.49-18 112.34-18Q112.49-21.4 114.04-23.2L114.04-23.2Q116.69-26.25 122.64-26.25L122.64-26.25Q132.29-26.25 132.29-19.25L132.29-19.25 132.29-4.9Q132.29-3 133.94-3L133.94-3Q134.14-3 134.99-3.3L134.99-3.3Q135.29-3.4 135.39-3.45ZM128.24-8.65L128.24-13.15 121.64-11.45Q118.09-10.55 116.77-9.6 115.44-8.65 115.44-6.95L115.44-6.95Q115.44-3 120.54-3L120.54-3Q124.14-3 126.64-5.35L126.64-5.35Q128.24-6.8 128.24-8.65L128.24-8.65ZM160.29-25.7L150.44 0 145.99 0 136.94-25.7 141.59-25.7 148.39-4.9 155.69-25.7 160.29-25.7ZM175.29-18.35L169.44-12.55 169.44 0 164.89 0 164.89-35.8 169.44-35.8 169.44-17.7 187.29-35.8 193.19-35.8 178.54-21.2 193.29 0 187.89 0 175.29-18.35ZM217.38-25.7L217.38 0 213.33 0 213.33-4.05Q210.58 0.55 205.13 0.55L205.13 0.55Q201.38 0.55 199.16-1.33 196.93-3.2 196.93-6.35L196.93-6.35 196.93-25.7 200.98-25.7 200.98-8Q200.98-5.75 202.43-4.4 203.88-3.05 206.33-3.05L206.33-3.05Q209.53-3.05 211.43-5.38 213.33-7.7 213.33-11.65L213.33-11.65 213.33-25.7 217.38-25.7ZM224.48 0L224.48-25.7 228.28-25.7 228.28-22Q231.28-26.25 236.18-26.25L236.18-26.25Q240.93-26.25 243.08-22.45L243.08-22.45Q244.93-24.6 246.66-25.43 248.38-26.25 250.93-26.25L250.93-26.25Q258.43-26.25 258.43-19.2L258.43-19.2 258.43 0 254.33 0 254.33-17.6Q254.33-22.7 249.53-22.7L249.53-22.7Q247.03-22.7 245.28-20.75 243.53-18.8 243.53-16.1L243.53-16.1 243.53 0 239.43 0 239.43-17.6Q239.43-22.7 234.68-22.7L234.68-22.7Q232.13-22.7 230.36-20.78 228.58-18.85 228.58-16.1L228.58-16.1 228.58 0 224.48 0ZM288.18-3.45L288.18-3.45 288.18-0.15Q286.48 0.45 285.53 0.45L285.53 0.45Q281.53 0.45 281.18-3.2L281.18-3.2Q278.43 0.55 272.43 0.55L272.43 0.55Q268.28 0.55 265.98-1.75L265.98-1.75Q263.98-3.75 263.98-6.9L263.98-6.9Q263.98-10.5 266.53-12.45L266.53-12.45Q267.98-13.55 272.58-14.6L272.58-14.6 280.98-16.5 281.03-18.65Q281.03-22.5 275.23-22.5L275.23-22.5Q269.68-22.5 269.28-18L269.28-18 265.13-18Q265.28-21.4 266.83-23.2L266.83-23.2Q269.48-26.25 275.43-26.25L275.43-26.25Q285.08-26.25 285.08-19.25L285.08-19.25 285.08-4.9Q285.08-3 286.73-3L286.73-3Q286.93-3 287.78-3.3L287.78-3.3Q288.08-3.4 288.18-3.45ZM281.03-8.65L281.03-13.15 274.43-11.45Q270.88-10.55 269.55-9.6 268.23-8.65 268.23-6.95L268.23-6.95Q268.23-3 273.33-3L273.33-3Q276.93-3 279.43-5.35L279.43-5.35Q281.03-6.8 281.03-8.65L281.03-8.65ZM292.63 0L292.63-25.7 296.43-25.7 296.43-21Q298.68-26.3 303.53-26.3L303.53-26.3Q304.13-26.3 304.98-26.15L304.98-26.15 304.98-21.95Q300.98-21.9 299.48-20.8L299.48-20.8Q296.73-18.8 296.73-13.35L296.73-13.35 296.73 0 292.63 0Z" opacity="1" transform="matrix(1,0,0,1,0,0)" fill="#1e55b3" class="wordmark-text-0" data-fill-palette-color="primary" id="text-0"></path></svg></g></svg></g><g transform="matrix(1,0,0,1,0,59.56791667257057)"><svg viewBox="0 0 232.209792 21.833691055205446" height="21.833691055205446" width="232.209792"><g transform="matrix(1,0,0,1,0,0)"><svg width="232.209792" viewBox="2.5 -31.5 396.64 37.3" height="21.833691055205446" data-palette-color="#ff585f"><path d="M6.3 0.55L6.3 0.55Q4.7 0.55 3.6-0.53 2.5-1.6 2.5-3.1L2.5-3.1Q2.5-4.65 3.6-5.73 4.7-6.8 6.3-6.8L6.3-6.8Q7.9-6.8 9.05-5.73 10.2-4.65 10.2-3.1L10.2-3.1Q10.2-1.6 9.05-0.53 7.9 0.55 6.3 0.55ZM6.3-1.25L6.3-1.25Q8.15-1.25 8.15-3.1L8.15-3.1Q8.15-4.95 6.3-4.95L6.3-4.95Q4.45-4.95 4.45-3.1L4.45-3.1Q4.45-1.25 6.3-1.25ZM6.3-1.35L6.3-1.35Q5.6-1.35 5.15-1.88 4.7-2.4 4.7-3.1L4.7-3.1Q4.7-3.85 5.15-4.33 5.6-4.8 6.3-4.8L6.3-4.8Q7-4.8 7.43-4.33 7.85-3.85 7.85-3.1L7.85-3.1Q7.85-2.4 7.43-1.88 7-1.35 6.3-1.35ZM20.9 0L13.95 0 13.95-29.55 20.85-29.55 24.45-15.8 24.45-29.55 31.4-29.55 31.4 0 24.55 0 20.9-12.25 20.9 0ZM17.2-15L17.35-2.35 17.6-2.35 17.75-15 17.6-26.7 21.95-15.25 27.75-2.35 27.9-2.35 28.05-15 27.9-27.35 27.65-27.35 27.5-15 27.7-2.85 22.65-14.95 17.5-27.35 17.35-27.35 17.2-15ZM42.3 0.6L42.3 0.6Q39.35 0.6 37.42-0.08 35.5-0.75 34.57-2.68 33.65-4.6 33.65-8.3L33.65-8.3 33.65-18.65Q33.65-22.35 35.9-23.75 38.15-25.15 42.3-25.15L42.3-25.15Q46.45-25.15 48.7-23.75 50.95-22.35 50.95-18.65L50.95-18.65 50.95-11.65 41.45-11.65 41.45-4.9Q41.45-4.05 41.67-3.73 41.9-3.4 42.3-3.4L42.3-3.4Q42.7-3.4 42.92-3.73 43.15-4.05 43.15-4.9L43.15-4.9 43.15-9.4 50.95-9.4 50.95-8.35Q50.95-4.65 50.02-2.7 49.1-0.75 47.2-0.08 45.3 0.6 42.3 0.6ZM46.8-19.1L46.8-13.35 47.2-13.35 47.2-19.1Q47.2-20.75 46.32-21.83 45.45-22.9 43.65-22.9L43.65-22.9 43.65-22.8Q45.4-22.8 46.1-21.73 46.8-20.65 46.8-19.1L46.8-19.1ZM40.45-1.65L40.45-1.65 40.45-1.75Q39.35-1.75 38.45-2.7 37.55-3.65 37.6-5.1L37.6-5.1 37.75-12.25 37.6-19.45Q37.55-20.9 38.72-21.83 39.9-22.75 41.3-22.75L41.3-22.75 41.3-22.85Q39.55-22.85 38.4-21.93 37.25-21 37.2-19.15L37.2-19.15 37.05-12.25 37.2-5.15Q37.25-3.6 38.3-2.63 39.35-1.65 40.45-1.65ZM41.45-19.65L41.45-15 43.15-15 43.15-19.65Q43.15-20.5 42.92-20.83 42.7-21.15 42.3-21.15L42.3-21.15Q41.9-21.15 41.67-20.83 41.45-20.5 41.45-19.65L41.45-19.65ZM43.25-1.75L43.25-1.65Q45.05-1.65 46.12-2.83 47.2-4 47.2-5.65L47.2-5.65 47.2-8.2 46.8-8.2 46.8-5.65Q46.8-4.1 45.9-2.93 45-1.75 43.25-1.75L43.25-1.75ZM61.74 0.5L61.74 0.5Q59.79 0.5 58.09 0.08 56.39-0.35 55.32-1.65 54.24-2.95 54.24-5.5L54.24-5.5 54.24-20.25 51.79-20.25 51.79-23.6 54.94-24.75 55.99-29.25 62.04-29.25 62.04-24.75 66.24-24.75 66.24-20.25 62.04-20.25 62.04-6.85Q62.04-6.1 62.37-5.38 62.69-4.65 63.89-4.65L63.89-4.65 64.59-4.65Q64.79-4.65 64.97-4.65 65.14-4.65 65.34-4.7L65.34-4.7 66.24-4.8 66.24-0.2Q65.89-0.1 65.57-0.03 65.24 0.05 64.84 0.15L64.84 0.15Q64.19 0.3 63.39 0.4 62.59 0.5 61.74 0.5ZM60.94-2.1L60.94-2.1 60.94-2.15Q59.64-2.25 58.84-3.15 58.04-4.05 58.09-5.8L58.09-5.8 58.29-14.75 58.14-22.2 63.94-22.35 63.94-22.45 58.14-22.55 58.09-26 57.89-26 57.79-22.55 53.59-22.45 53.59-22.35 57.79-22.2 57.64-14.75 57.79-5.65Q57.84-4.35 58.59-3.23 59.34-2.1 60.94-2.1ZM83.89 0L75.59 0 75.59-29.55 89.89-29.55 89.89-24 83.89-24 83.89-18.25 89.39-18.25 89.39-12 83.89-12 83.89 0ZM79.39-15L79.59-2.75 79.84-2.75 80.04-14.9 86.59-14.95 86.59-15.05 80.04-15.1 79.84-26.6 87.84-26.65 87.84-26.75 79.59-26.8 79.39-15ZM96.74 0.35L96.74 0.35Q93.44 0.35 92.34-1.3 91.24-2.95 91.24-6.2L91.24-6.2 91.24-24.75 99.04-24.75 99.04-6.5Q99.04-5.1 99.89-5.1L99.89-5.1Q100.09-5.1 100.34-5.13 100.59-5.15 100.74-5.25L100.74-5.25 100.74-24.75 108.54-24.75 108.54 0 101.89 0 101.29-3.25Q100.84-1.7 99.59-0.68 98.34 0.35 96.74 0.35ZM97.34-2.35L97.34-2.35Q98.59-2.35 99.49-3.1L99.49-3.1 99.49-3.2Q98.54-2.45 97.34-2.45L97.34-2.45Q96.24-2.45 95.84-3.3 95.44-4.15 95.44-4.85L95.44-4.85 95.64-12.55 95.44-22.45 95.24-22.45 94.99-12.55 95.14-4.85Q95.19-3.7 95.74-3.03 96.29-2.35 97.34-2.35ZM104.44-12.8L104.64-2.15 104.84-2.15 105.09-12.8 104.89-22.45 104.69-22.45 104.44-12.8ZM118.83 0L111.03 0 111.03-31.5 118.83-31.5 118.83 0ZM114.53-16.65L114.73-2.35 114.93-2.35 115.18-16.65 114.98-29.55 114.78-29.55 114.53-16.65ZM129.13 0L121.33 0 121.33-31.5 129.13-31.5 129.13 0ZM124.83-16.65L125.03-2.35 125.23-2.35 125.48-16.65 125.28-29.55 125.08-29.55 124.83-16.65ZM147.68 0.4L147.68 0.4Q144.58 0.4 142.55-0.38 140.53-1.15 139.55-3.08 138.58-5 138.58-8.45L138.58-8.45 138.58-9.4 146.93-9.4 146.93-7.2Q146.93-5.5 147.13-4.78 147.33-4.05 147.98-4.05L147.98-4.05Q148.58-4.05 148.78-4.55L148.78-4.55Q148.98-5 148.98-6.8L148.98-6.8Q148.98-8.45 148.43-9.35 147.88-10.25 146.7-10.88 145.53-11.5 143.63-12.3L143.63-12.3Q140.83-13.55 139.83-15.63 138.83-17.7 138.83-21.1L138.83-21.1Q138.83-24.3 139.7-26.18 140.58-28.05 142.58-28.85 144.58-29.65 147.98-29.65L147.98-29.65Q157.08-29.65 157.08-22.45L157.08-22.45 157.08-19.15 149.13-19.15 149.13-19.95Q149.13-20.95 149.1-21.75 149.08-22.55 149.03-23.05L149.03-23.05Q148.88-24.05 148.08-24.05L148.08-24.05Q147.43-24.05 147.25-23.25 147.08-22.45 147.08-21.35L147.08-21.35Q147.08-19.95 147.6-19.23 148.13-18.5 149.08-18.1 150.03-17.7 151.18-17.25L151.18-17.25Q153.53-16.4 154.88-15.48 156.23-14.55 156.83-12.98 157.43-11.4 157.43-8.55L157.43-8.55Q157.43-3.65 154.88-1.63 152.33 0.4 147.68 0.4ZM147.93-1.95L147.93-1.95Q148.48-1.95 149.15-2 149.83-2.05 150.23-2.15L150.23-2.15Q151.98-2.55 152.75-3.85 153.53-5.15 153.53-8L153.53-8Q153.53-10.4 152.6-11.83 151.68-13.25 149.68-13.95L149.68-13.95 148.13-14.5 146.68-15.2Q144.78-16.15 144.05-17.53 143.33-18.9 143.33-21.05L143.33-21.05Q143.33-23.6 143.95-24.88 144.58-26.15 146.28-26.5L146.28-26.5Q146.68-26.6 147.15-26.65 147.63-26.7 148.13-26.7L148.13-26.7Q149.03-26.7 149.68-26.55L149.68-26.55Q151.53-26.25 152.25-24.98 152.98-23.7 152.98-21.05L152.98-21.05 153.13-21.05Q153.28-23.9 152.5-25.15 151.73-26.4 149.68-26.7L149.68-26.7Q149.33-26.75 148.93-26.78 148.53-26.8 148.13-26.8L148.13-26.8Q147.03-26.8 146.28-26.65L146.28-26.65Q144.38-26.3 143.53-25.03 142.68-23.75 142.68-21.05L142.68-21.05Q142.68-16.6 146.58-15L146.58-15 148.08-14.4 149.58-13.75Q151.53-12.9 152.23-11.6 152.93-10.3 152.93-8L152.93-8Q152.93-5.3 152.35-3.98 151.78-2.65 150.18-2.3L150.18-2.3Q149.78-2.2 149.13-2.13 148.48-2.05 147.93-2.05L147.93-2.05Q147.53-2.05 146.9-2.1 146.28-2.15 145.93-2.25L145.93-2.25Q144.13-2.6 143.45-3.9 142.78-5.2 142.78-8.05L142.78-8.05 142.63-8.05Q142.48-5.05 143.2-3.73 143.93-2.4 145.88-2.1L145.88-2.1Q146.23-2.05 146.88-2 147.53-1.95 147.93-1.95ZM168.17 0.5L168.17 0.5Q166.22 0.5 164.52 0.08 162.82-0.35 161.75-1.65 160.67-2.95 160.67-5.5L160.67-5.5 160.67-20.25 158.22-20.25 158.22-23.6 161.37-24.75 162.42-29.25 168.47-29.25 168.47-24.75 172.67-24.75 172.67-20.25 168.47-20.25 168.47-6.85Q168.47-6.1 168.8-5.38 169.12-4.65 170.32-4.65L170.32-4.65 171.02-4.65Q171.22-4.65 171.4-4.65 171.57-4.65 171.77-4.7L171.77-4.7 172.67-4.8 172.67-0.2Q172.32-0.1 172-0.03 171.67 0.05 171.27 0.15L171.27 0.15Q170.62 0.3 169.82 0.4 169.02 0.5 168.17 0.5ZM167.37-2.1L167.37-2.1 167.37-2.15Q166.07-2.25 165.27-3.15 164.47-4.05 164.52-5.8L164.52-5.8 164.72-14.75 164.57-22.2 170.37-22.35 170.37-22.45 164.57-22.55 164.52-26 164.32-26 164.22-22.55 160.02-22.45 160.02-22.35 164.22-22.2 164.07-14.75 164.22-5.65Q164.27-4.35 165.02-3.23 165.77-2.1 167.37-2.1ZM178.87 0.35L178.87 0.35Q177.82 0.35 176.67 0.05 175.52-0.25 174.75-1.28 173.97-2.3 173.97-4.45L173.97-4.45 173.97-8.5Q173.97-10.6 174.97-11.78 175.97-12.95 177.52-13.6 179.07-14.25 180.77-14.85L180.77-14.85Q182.32-15.35 182.77-16.07 183.22-16.8 183.22-18.25L183.22-18.25 183.22-19.85Q183.22-20.4 183.07-20.78 182.92-21.15 182.37-21.15L182.37-21.15Q181.82-21.15 181.67-20.7L181.67-20.7Q181.52-20.2 181.52-19.2L181.52-19.2 181.52-16.05 174.47-16.05 174.47-19.3Q174.47-22.3 176.2-23.78 177.92-25.25 182.42-25.25L182.42-25.25Q185.62-25.25 187.52-24.83 189.42-24.4 190.3-23.13 191.17-21.85 191.17-19.3L191.17-19.3 191.17 0 183.37 0 183.37-2.45Q183.07-1.5 182.05-0.58 181.02 0.35 178.87 0.35ZM177.57-19.75L177.57-18.3 177.97-18.3 177.97-19.75Q177.97-21.3 179.25-22.38 180.52-23.45 182.27-23.45L182.27-23.45 182.27-23.55Q180.52-23.55 179.05-22.5 177.57-21.45 177.57-19.75L177.57-19.75ZM186.77-12L186.97-2.35 187.17-2.35 187.42-12 187.22-21.45 187.02-21.45 186.77-12ZM179.77-1.95L179.77-1.95 179.77-2.05Q178.82-2.05 178.4-2.85 177.97-3.65 177.97-5.55L177.97-5.55 177.97-9.05Q177.97-10.75 178.95-11.6 179.92-12.45 180.77-12.75L180.77-12.75 180.77-12.85Q179.77-12.5 178.62-11.58 177.47-10.65 177.47-9.05L177.47-9.05 177.47-5.55Q177.47-3.55 178.12-2.75 178.77-1.95 179.77-1.95ZM182.37-4L182.37-4Q183.02-4 183.12-4.67 183.22-5.35 183.22-6.35L183.22-6.35 183.22-12.3Q182.47-11.85 182-11.15 181.52-10.45 181.52-9.3L181.52-9.3 181.52-6.05Q181.52-5.2 181.65-4.6 181.77-4 182.37-4ZM201.82 0.6L201.82 0.6Q198.87 0.6 196.94-0.08 195.02-0.75 194.09-2.68 193.17-4.6 193.17-8.3L193.17-8.3 193.17-18.65Q193.17-22.35 195.42-23.75 197.67-25.15 201.82-25.15L201.82-25.15Q205.97-25.15 208.22-23.75 210.47-22.35 210.47-18.65L210.47-18.65 210.47-14.7 202.67-14.7 202.67-19.65Q202.67-20.5 202.44-20.83 202.22-21.15 201.82-21.15L201.82-21.15Q201.42-21.15 201.19-20.83 200.97-20.5 200.97-19.65L200.97-19.65 200.97-4.9Q200.97-4.05 201.19-3.73 201.42-3.4 201.82-3.4L201.82-3.4Q202.22-3.4 202.44-3.73 202.67-4.05 202.67-4.9L202.67-4.9 202.67-10.65 210.47-10.65 210.47-8.35Q210.47-4.65 209.54-2.7 208.62-0.75 206.72-0.08 204.82 0.6 201.82 0.6ZM206.32-19.1L206.32-16.7 206.72-16.7 206.72-19.1Q206.67-20.75 205.82-21.83 204.97-22.9 203.17-22.9L203.17-22.9 203.17-22.8Q204.92-22.8 205.59-21.73 206.27-20.65 206.32-19.1L206.32-19.1ZM199.97-1.65L199.97-1.65 199.97-1.75Q198.87-1.75 197.99-2.7 197.12-3.65 197.12-5.1L197.12-5.1 197.27-12.25 197.12-19.45Q197.12-20.9 198.27-21.83 199.42-22.75 200.82-22.75L200.82-22.75 200.82-22.85Q199.07-22.85 197.92-21.93 196.77-21 196.72-19.15L196.72-19.15 196.57-12.25 196.72-5.15Q196.72-3.6 197.79-2.63 198.87-1.65 199.97-1.65ZM202.77-1.75L202.77-1.65Q204.57-1.65 205.62-2.83 206.67-4 206.72-5.65L206.72-5.65 206.72-9.25 206.32-9.25 206.32-5.65Q206.27-4.1 205.39-2.93 204.52-1.75 202.77-1.75L202.77-1.75ZM220.27 0L212.47 0 212.47-31.5 220.27-31.5 220.27 0ZM215.92-16.65L216.12-2.35 216.32-2.35 216.57-16.65 216.37-29.55 216.17-29.55 215.92-16.65ZM231.77 0L223.17 0 220.37-14.35 224.22-24.75 231.92-24.75 227.42-15 231.77 0ZM226.87-2.35L226.87-2.35 227.07-2.35 225.57-8.2Q225.42-8.75 225.14-9.73 224.87-10.7 224.62-11.73 224.37-12.75 224.17-13.48 223.97-14.2 223.97-14.25L223.97-14.25 227.52-23.7 227.27-23.7 223.27-14.25Q223.97-12 224.62-9.88 225.27-7.75 225.77-6.05L225.77-6.05Q226.02-5.05 226.32-4.13 226.62-3.2 226.87-2.35ZM250.86 0L240.46 0 240.46-29.55 252.06-29.55Q255.36-29.55 256.84-28.15 258.31-26.75 258.31-24.5L258.31-24.5 258.31-6.25Q258.31-2.7 256.34-1.35 254.36 0 250.86 0L250.86 0ZM244.21-14.9L244.36-2.35 244.56-2.35 244.71-14.9 244.56-27.45 244.36-27.45 244.21-14.9ZM249.41-2.25L249.41-2.25 250.91-2.25Q254.21-2.25 254.21-5.7L254.21-5.7 254.36-15 254.21-24.65Q254.21-26.2 253.21-26.83 252.21-27.45 250.61-27.45L250.61-27.45 248.91-27.4 248.91-27.3 250.61-27.25Q252.16-27.25 253.09-26.68 254.01-26.1 254.01-24.65L254.01-24.65 253.86-15.05 254.01-5.7Q254.01-2.45 250.91-2.45L250.91-2.45 250.11-2.45Q249.91-2.4 249.74-2.4 249.56-2.4 249.41-2.4L249.41-2.4 248.76-2.4 248.76-2.3Q248.96-2.25 249.41-2.25ZM248.76-25.15L248.76-4 249.51-4Q249.91-4 250.14-4.33 250.36-4.65 250.36-5.5L250.36-5.5 250.36-23.65Q250.36-24.5 250.14-24.83 249.91-25.15 249.51-25.15L249.51-25.15 248.76-25.15ZM268.96 0.6L268.96 0.6Q266.01 0.6 264.08-0.08 262.16-0.75 261.23-2.68 260.31-4.6 260.31-8.3L260.31-8.3 260.31-18.65Q260.31-22.35 262.56-23.75 264.81-25.15 268.96-25.15L268.96-25.15Q273.11-25.15 275.36-23.75 277.61-22.35 277.61-18.65L277.61-18.65 277.61-11.65 268.11-11.65 268.11-4.9Q268.11-4.05 268.33-3.73 268.56-3.4 268.96-3.4L268.96-3.4Q269.36-3.4 269.58-3.73 269.81-4.05 269.81-4.9L269.81-4.9 269.81-9.4 277.61-9.4 277.61-8.35Q277.61-4.65 276.68-2.7 275.76-0.75 273.86-0.08 271.96 0.6 268.96 0.6ZM273.46-19.1L273.46-13.35 273.86-13.35 273.86-19.1Q273.86-20.75 272.98-21.83 272.11-22.9 270.31-22.9L270.31-22.9 270.31-22.8Q272.06-22.8 272.76-21.73 273.46-20.65 273.46-19.1L273.46-19.1ZM267.11-1.65L267.11-1.65 267.11-1.75Q266.01-1.75 265.11-2.7 264.21-3.65 264.26-5.1L264.26-5.1 264.41-12.25 264.26-19.45Q264.21-20.9 265.38-21.83 266.56-22.75 267.96-22.75L267.96-22.75 267.96-22.85Q266.21-22.85 265.06-21.93 263.91-21 263.86-19.15L263.86-19.15 263.71-12.25 263.86-5.15Q263.91-3.6 264.96-2.63 266.01-1.65 267.11-1.65ZM268.11-19.65L268.11-15 269.81-15 269.81-19.65Q269.81-20.5 269.58-20.83 269.36-21.15 268.96-21.15L268.96-21.15Q268.56-21.15 268.33-20.83 268.11-20.5 268.11-19.65L268.11-19.65ZM269.91-1.75L269.91-1.65Q271.71-1.65 272.78-2.83 273.86-4 273.86-5.65L273.86-5.65 273.86-8.2 273.46-8.2 273.46-5.65Q273.46-4.1 272.56-2.93 271.66-1.75 269.91-1.75L269.91-1.75ZM292.66 0L283.31 0 278.36-24.75 286.41-24.75 288.46-9.2 290.16-24.75 297.56-24.75 292.66 0ZM284.16-13.45L286.26-2.35 286.41-2.35 284.76-13.5 283.01-23.3 282.81-23.3 284.16-13.45ZM291.71-13.5L290.16-2.35 290.31-2.35 292.36-13.5 293.46-23.3 293.26-23.3 291.71-13.5ZM306.6 0.6L306.6 0.6Q303.65 0.6 301.73-0.08 299.8-0.75 298.88-2.68 297.95-4.6 297.95-8.3L297.95-8.3 297.95-18.65Q297.95-22.35 300.2-23.75 302.45-25.15 306.6-25.15L306.6-25.15Q310.75-25.15 313-23.75 315.25-22.35 315.25-18.65L315.25-18.65 315.25-11.65 305.75-11.65 305.75-4.9Q305.75-4.05 305.98-3.73 306.2-3.4 306.6-3.4L306.6-3.4Q307-3.4 307.23-3.73 307.45-4.05 307.45-4.9L307.45-4.9 307.45-9.4 315.25-9.4 315.25-8.35Q315.25-4.65 314.33-2.7 313.4-0.75 311.5-0.08 309.6 0.6 306.6 0.6ZM311.1-19.1L311.1-13.35 311.5-13.35 311.5-19.1Q311.5-20.75 310.63-21.83 309.75-22.9 307.95-22.9L307.95-22.9 307.95-22.8Q309.7-22.8 310.4-21.73 311.1-20.65 311.1-19.1L311.1-19.1ZM304.75-1.65L304.75-1.65 304.75-1.75Q303.65-1.75 302.75-2.7 301.85-3.65 301.9-5.1L301.9-5.1 302.05-12.25 301.9-19.45Q301.85-20.9 303.03-21.83 304.2-22.75 305.6-22.75L305.6-22.75 305.6-22.85Q303.85-22.85 302.7-21.93 301.55-21 301.5-19.15L301.5-19.15 301.35-12.25 301.5-5.15Q301.55-3.6 302.6-2.63 303.65-1.65 304.75-1.65ZM305.75-19.65L305.75-15 307.45-15 307.45-19.65Q307.45-20.5 307.23-20.83 307-21.15 306.6-21.15L306.6-21.15Q306.2-21.15 305.98-20.83 305.75-20.5 305.75-19.65L305.75-19.65ZM307.55-1.75L307.55-1.65Q309.35-1.65 310.43-2.83 311.5-4 311.5-5.65L311.5-5.65 311.5-8.2 311.1-8.2 311.1-5.65Q311.1-4.1 310.2-2.93 309.3-1.75 307.55-1.75L307.55-1.75ZM325.05 0L317.25 0 317.25-31.5 325.05-31.5 325.05 0ZM320.75-16.65L320.95-2.35 321.15-2.35 321.4-16.65 321.2-29.55 321-29.55 320.75-16.65ZM335.95 0.6L335.95 0.6Q333 0.6 331.07-0.08 329.15-0.75 328.22-2.68 327.3-4.6 327.3-8.3L327.3-8.3 327.3-18.65Q327.3-22.35 329.55-23.75 331.8-25.15 335.95-25.15L335.95-25.15Q340.1-25.15 342.35-23.75 344.6-22.35 344.6-18.65L344.6-18.65 344.6-8.35Q344.6-4.65 343.67-2.7 342.75-0.75 340.85-0.08 338.95 0.6 335.95 0.6ZM334.65-1.4L334.65-1.4 334.65-1.5Q333.15-1.6 332.3-2.8 331.45-4 331.5-6.25L331.5-6.25 331.65-12.25 331.5-19.15Q331.45-20.65 332.05-21.7 332.65-22.75 334.45-22.75L334.45-22.75 334.45-22.85Q332.55-22.85 331.85-21.78 331.15-20.7 331.1-19.15L331.1-19.15 330.9-12.25 331.1-6.1Q331.2-3.75 332.17-2.63 333.15-1.5 334.65-1.4ZM337.2-1.5L337.2-1.4Q338.7-1.5 339.7-2.63 340.7-3.75 340.75-6.1L340.75-6.1 340.95-12.25 340.75-19.15Q340.7-20.7 340-21.78 339.3-22.85 337.4-22.85L337.4-22.85 337.4-22.75Q339.2-22.75 339.8-21.7 340.4-20.65 340.35-19.15L340.35-19.15 340.2-12.25 340.35-6.25Q340.45-4 339.57-2.8 338.7-1.6 337.2-1.5L337.2-1.5ZM335.95-3.4L335.95-3.4Q336.35-3.4 336.57-3.73 336.8-4.05 336.8-4.9L336.8-4.9 336.8-19.65Q336.8-20.5 336.57-20.83 336.35-21.15 335.95-21.15L335.95-21.15Q335.55-21.15 335.32-20.83 335.1-20.5 335.1-19.65L335.1-19.65 335.1-4.9Q335.1-4.05 335.32-3.73 335.55-3.4 335.95-3.4ZM354.65 5.8L346.85 5.8 346.85-24.75 354.65-24.75 354.65-23Q355.15-23.85 356.05-24.5 356.95-25.15 358.6-25.15L358.6-25.15Q360.1-25.15 361.37-24.7 362.65-24.25 363.4-23.03 364.15-21.8 364.15-19.55L364.15-19.55 364.15-7.7Q364.15-3.35 362.72-1.53 361.3 0.3 358.65 0.3L358.65 0.3Q356.95 0.3 356.05-0.33 355.15-0.95 354.65-1.8L354.65-1.8 354.65 5.8ZM350.3-9L350.55 3.9 350.75 3.9 350.95-9 350.7-23.3 350.5-23.3 350.3-9ZM355.7-2.45L355.7-2.35Q356.55-2 357.35-2L357.35-2Q358.6-2 359.4-2.98 360.2-3.95 360.25-6.1L360.25-6.1 360.45-12.25 360.25-19.15Q360.2-20.6 359.5-21.53 358.8-22.45 357.5-22.45L357.5-22.45Q356.8-22.45 355.95-22.15L355.95-22.15 355.95-22.05Q356.35-22.2 356.67-22.25 357-22.3 357.3-22.3L357.3-22.3Q358.6-22.3 359.22-21.4 359.85-20.5 359.85-19.15L359.85-19.15 359.7-12.25 359.85-6.25Q359.95-4.2 359.2-3.18 358.45-2.15 357.2-2.15L357.2-2.15Q356.55-2.15 355.7-2.45L355.7-2.45ZM355.5-4L355.5-4Q355.9-4 356.12-4.33 356.35-4.65 356.35-5.5L356.35-5.5 356.35-18.9Q356.35-19.75 356.12-20.08 355.9-20.4 355.5-20.4L355.5-20.4Q355.35-20.4 355.2-20.38 355.05-20.35 354.9-20.3L354.9-20.3 354.65-20.25 354.65-5.5Q354.65-4.65 354.87-4.33 355.1-4 355.5-4ZM374.79 0.6L374.79 0.6Q371.84 0.6 369.92-0.08 367.99-0.75 367.07-2.68 366.14-4.6 366.14-8.3L366.14-8.3 366.14-18.65Q366.14-22.35 368.39-23.75 370.64-25.15 374.79-25.15L374.79-25.15Q378.94-25.15 381.19-23.75 383.44-22.35 383.44-18.65L383.44-18.65 383.44-11.65 373.94-11.65 373.94-4.9Q373.94-4.05 374.17-3.73 374.39-3.4 374.79-3.4L374.79-3.4Q375.19-3.4 375.42-3.73 375.64-4.05 375.64-4.9L375.64-4.9 375.64-9.4 383.44-9.4 383.44-8.35Q383.44-4.65 382.52-2.7 381.59-0.75 379.69-0.08 377.79 0.6 374.79 0.6ZM379.29-19.1L379.29-13.35 379.69-13.35 379.69-19.1Q379.69-20.75 378.82-21.83 377.94-22.9 376.14-22.9L376.14-22.9 376.14-22.8Q377.89-22.8 378.59-21.73 379.29-20.65 379.29-19.1L379.29-19.1ZM372.94-1.65L372.94-1.65 372.94-1.75Q371.84-1.75 370.94-2.7 370.04-3.65 370.09-5.1L370.09-5.1 370.24-12.25 370.09-19.45Q370.04-20.9 371.22-21.83 372.39-22.75 373.79-22.75L373.79-22.75 373.79-22.85Q372.04-22.85 370.89-21.93 369.74-21 369.69-19.15L369.69-19.15 369.54-12.25 369.69-5.15Q369.74-3.6 370.79-2.63 371.84-1.65 372.94-1.65ZM373.94-19.65L373.94-15 375.64-15 375.64-19.65Q375.64-20.5 375.42-20.83 375.19-21.15 374.79-21.15L374.79-21.15Q374.39-21.15 374.17-20.83 373.94-20.5 373.94-19.65L373.94-19.65ZM375.74-1.75L375.74-1.65Q377.54-1.65 378.62-2.83 379.69-4 379.69-5.65L379.69-5.65 379.69-8.2 379.29-8.2 379.29-5.65Q379.29-4.1 378.39-2.93 377.49-1.75 375.74-1.75L375.74-1.75ZM393.24 0L385.44 0 385.44-24.75 392.09-24.75 392.69-21.55Q393.34-23.2 394.74-24.08 396.14-24.95 397.84-24.95L397.84-24.95Q398.49-24.95 399.14-24.8L399.14-24.8 399.14-18.85Q398.24-19 397.39-19L397.39-19Q396.69-19 395.94-18.85 395.19-18.7 394.64-18.3L394.64-18.3Q393.79-17.65 393.52-16.53 393.24-15.4 393.24-13.95L393.24-13.95 393.24 0ZM393.44-20.25L393.44-20.1Q393.74-20.7 394.82-21.28 395.89-21.85 397.14-21.85L397.14-21.85 397.14-22.25Q395.84-22.25 394.79-21.58 393.74-20.9 393.44-20.25L393.44-20.25ZM388.99-12L389.19-2.35 389.39-2.35 389.64-12 389.44-21.45 389.24-21.45 388.99-12Z" opacity="1" transform="matrix(1,0,0,1,0,0)" fill="#ff585f" class="slogan-text-1" data-fill-palette-color="secondary" id="text-1"></path></svg></g></svg></g></svg></g></svg></g><g><svg viewBox="0 0 112.4910115065387 112.49702187978646" height="112.49702187978646" width="112.4910115065387"><g><svg xmlns="http://www.w3.org/2000/svg" xmlns:xlink="http://www.w3.org/1999/xlink" version="1.1" x="0" y="0" viewBox="22.2795181 22.278038 55.44096180000581 55.44392400000001" enable-background="new 0 0 100 100" xml:space="preserve" height="112.49702187978646" width="112.4910115065387" class="icon-icon-0" data-fill-palette-color="accent" id="icon-0"><g fill="#ff585f" data-fill-palette-color="accent"><path d="M76.565 22.278H23.435c-0.638 0-1.155 0.517-1.155 1.155v23.1c0 0.638 0.517 1.155 1.155 1.155 0.638 0 1.155-0.517 1.155-1.155V24.588h50.82v50.82h-21.945c-0.638 0-1.155 0.517-1.155 1.155 0 0.638 0.517 1.155 1.155 1.155h23.1c0.638 0 1.155-0.517 1.155-1.155V23.433C77.72 22.795 77.203 22.278 76.565 22.278z" fill="#ff585f" data-fill-palette-color="accent"></path><path d="M61.55 40.081v6.452c0 0.638 0.517 1.155 1.155 1.155 0.638 0 1.155-0.517 1.155-1.155V36.138H53.465c-0.638 0-1.155 0.517-1.155 1.155 0 0.638 0.517 1.155 1.155 1.155h6.452L46.053 52.312H23.435c-0.635 0-1.155 0.508-1.155 1.155v23.1c0 0.635 0.52 1.155 1.155 1.155h23.1c0.635 0 1.155-0.52 1.155-1.155V53.942L61.55 40.081z" fill="#ff585f" data-fill-palette-color="accent"></path></g></svg></g></svg></g></svg></g><defs></defs></svg><rect width="395.52" height="81.62019032737349" fill="none" stroke="none" visibility="hidden"></rect></g></svg></g></svg>